Hanif_Medium_5_0_grf.mot
version=1
nRows=42
nColumns=19
inDegrees=yes
endheader
time	right_ground_force_vx	right_ground_force_vy	right_ground_force_vz	right_ground_force_px	right_ground_force_py	right_ground_force_pz	right_ground_torque_x	right_ground_torque_y	right_ground_torque_z	left_ground_force_vx	left_ground_force_vy	left_ground_force_vz	left_ground_force_px	left_ground_force_py	left_ground_force_pz	left_ground_torque_x	left_ground_torque_y	left_ground_torque_z
3.850000	2.379070	308.970000	40.386700	0.190436	0.000000	-1.444210	-19.056300	5.248770	-2.338610	2.943390	312.682000	-39.990300	0.215814	0.000000	-0.973480	21.963800	-7.439450	5.950650
3.855000	2.214180	307.998000	39.928500	0.190551	0.000000	-1.444360	-18.951000	5.236990	-2.297810	2.796460	309.402000	-38.802100	0.215476	0.000000	-0.973337	21.690900	-7.507020	5.780260
3.860000	2.031370	304.920000	40.045600	0.191118	0.000000	-1.443890	-18.907000	5.128730	-2.097890	2.442340	308.204000	-38.809100	0.215924	0.000000	-0.973750	21.742900	-7.432100	5.899670
3.865000	1.529520	306.172000	39.466300	0.190506	0.000000	-1.444840	-18.701200	5.173870	-2.300240	2.283590	307.679000	-38.074000	0.215908	0.000000	-0.974093	21.815600	-7.415800	5.867160
3.870000	1.282370	305.047000	38.997200	0.190593	0.000000	-1.444190	-18.835200	5.204430	-2.261130	2.109900	307.285000	-37.965800	0.216240	0.000000	-0.972559	21.320800	-7.355890	5.957330
3.875000	0.905717	303.824000	38.803400	0.190845	0.000000	-1.443610	-18.942000	5.083160	-2.184910	1.890330	307.202000	-37.775100	0.216908	0.000000	-0.973600	21.640300	-7.321760	6.156570
3.880000	0.620727	302.459000	37.887700	0.190532	0.000000	-1.444380	-18.629200	5.073530	-2.277860	1.806490	305.376000	-37.437200	0.217309	0.000000	-0.973822	21.581000	-7.330380	6.248060
3.885000	0.401377	302.232000	37.634400	0.190608	0.000000	-1.444310	-18.638300	5.083250	-2.252840	1.293250	305.380000	-37.459400	0.217280	0.000000	-0.973643	21.539700	-7.309660	6.241910
3.890000	0.132201	299.415000	37.047600	0.190983	0.000000	-1.444480	-18.418700	5.074520	-2.114160	1.321660	304.274000	-37.355100	0.218120	0.000000	-0.973613	21.451800	-7.248450	6.475080
3.895000	-0.197219	297.402000	36.925300	0.190580	0.000000	-1.443810	-18.497600	4.974680	-2.225570	1.209420	304.510000	-37.065500	0.218295	0.000000	-0.973231	21.354900	-7.207290	6.520410
3.900000	-0.169026	296.543000	36.793600	0.190876	0.000000	-1.444680	-18.187800	4.990830	-2.126770	1.633640	304.014000	-37.196300	0.217967	0.000000	-0.973593	21.419000	-7.304700	6.423720
3.905000	-0.235760	296.045000	36.452700	0.190692	0.000000	-1.444370	-18.248400	4.994080	-2.180760	1.555990	303.830000	-37.654300	0.218306	0.000000	-0.973368	21.339800	-7.266940	6.534280
3.910000	-0.209737	295.456000	36.215600	0.190828	0.000000	-1.444390	-18.207600	4.965250	-2.140430	2.006240	303.225000	-37.336700	0.218583	0.000000	-0.973884	21.442500	-7.220450	6.591800
3.915000	-0.677808	293.907000	35.665400	0.190635	0.000000	-1.444360	-18.127500	4.974680	-2.184090	1.700840	302.458000	-37.815800	0.218429	0.000000	-0.973461	21.267600	-7.212200	6.547910
3.920000	-0.657844	295.226000	35.387400	0.191615	0.000000	-1.444750	-18.094300	4.963030	-1.911440	1.620540	299.888000	-37.640600	0.219690	0.000000	-0.974507	21.402100	-7.147990	6.880580
3.925000	-1.294260	293.746000	35.500500	0.190963	0.000000	-1.444000	-18.233400	4.893880	-2.092300	1.810820	300.361000	-37.398700	0.219183	0.000000	-0.974728	21.497100	-7.212840	6.733120
3.930000	-0.920737	292.692000	35.230500	0.191580	0.000000	-1.443840	-18.209000	4.901970	-1.903240	1.975160	301.349000	-37.244100	0.219518	0.000000	-0.973324	21.141600	-7.141490	6.837100
3.935000	-0.582706	292.176000	34.941900	0.191238	0.000000	-1.443750	-18.196600	4.931170	-2.002730	2.087270	299.779000	-36.874800	0.220572	0.000000	-0.975058	21.547500	-7.154750	7.121880
3.940000	-0.637084	293.942000	34.921500	0.191829	0.000000	-1.444830	-17.991500	4.913860	-1.847200	1.810710	300.625000	-36.539800	0.220252	0.000000	-0.974545	21.461500	-7.147350	7.031270
3.945000	-0.660636	292.982000	34.678800	0.191571	0.000000	-1.444040	-18.162600	4.818320	-1.929070	1.417290	296.921000	-36.136200	0.221025	0.000000	-0.975693	21.547400	-7.066070	7.182530
3.950000	-0.724465	292.141000	34.828500	0.191958	0.000000	-1.443720	-18.205700	4.981090	-1.783480	0.778695	298.004000	-35.821200	0.221090	0.000000	-0.975416	21.560000	-7.087890	7.220940
3.955000	-0.960412	292.433000	34.320100	0.192379	0.000000	-1.443930	-18.166300	4.937770	-1.672800	1.189010	297.343000	-35.502800	0.220507	0.000000	-0.974254	21.156200	-7.037500	7.014840
3.960000	-1.105030	291.708000	34.084300	0.191841	0.000000	-1.443550	-18.233900	4.929720	-1.828610	0.584761	295.344000	-35.340400	0.221624	0.000000	-0.975500	21.397300	-6.926380	7.301670
3.965000	-1.703530	292.900000	33.953100	0.193391	0.000000	-1.444020	-18.182500	4.858210	-1.386520	0.712787	294.507000	-35.286000	0.221426	0.000000	-0.975932	21.460400	-7.013730	7.234950
3.970000	-1.999250	290.317000	33.578500	0.192844	0.000000	-1.444460	-17.898700	4.806680	-1.535020	0.518436	292.764000	-34.662700	0.222546	0.000000	-0.976205	21.418000	-6.975740	7.514750
3.975000	-2.190640	290.794000	33.102800	0.192762	0.000000	-1.443820	-18.115600	4.752000	-1.575680	0.066398	294.442000	-34.311600	0.221925	0.000000	-0.974566	21.070300	-6.877630	7.344160
3.980000	-2.382910	286.702000	32.795800	0.192407	0.000000	-1.443490	-17.959300	4.725880	-1.647830	0.296790	292.861000	-33.910500	0.222147	0.000000	-0.974786	21.015500	-6.830340	7.361530
3.985000	-2.631820	288.677000	33.142300	0.192761	0.000000	-1.443700	-18.026300	4.632130	-1.566750	0.275398	291.443000	-33.982600	0.222311	0.000000	-0.975608	21.153800	-6.833450	7.385170
3.990000	-3.024630	286.557000	32.577300	0.192885	0.000000	-1.444390	-17.703400	4.685730	-1.511420	0.067794	289.749000	-33.854000	0.222663	0.000000	-0.976609	21.326300	-6.814070	7.451780
3.995000	-2.885980	283.324000	32.093100	0.193116	0.000000	-1.443480	-17.758100	4.545150	-1.440120	0.319976	290.058000	-33.860300	0.222995	0.000000	-0.975754	21.094400	-6.844130	7.556990
4.000000	-3.050380	283.336000	32.217400	0.193270	0.000000	-1.443640	-17.718900	4.620290	-1.384440	-0.136356	288.289000	-33.255600	0.222903	0.000000	-0.976675	21.243400	-6.763830	7.471810
4.005000	-3.070870	282.056000	31.292400	0.193346	0.000000	-1.443280	-17.740400	4.592420	-1.369100	-0.204035	289.571000	-33.457900	0.222905	0.000000	-0.975814	21.090200	-6.780380	7.506300
4.010000	-2.955720	283.476000	31.498300	0.193739	0.000000	-1.443510	-17.762800	4.554210	-1.270170	-0.456242	286.639000	-33.042000	0.223191	0.000000	-0.976341	21.034400	-6.768480	7.519990
4.015000	-2.939220	281.853000	31.078300	0.193256	0.000000	-1.442630	-17.908000	4.653910	-1.390280	-0.081839	288.817000	-32.797500	0.223242	0.000000	-0.976558	21.247000	-6.715860	7.562520
4.020000	-2.793100	282.832000	30.831400	0.193571	0.000000	-1.443470	-17.729600	4.622180	-1.317110	-0.025422	286.714000	-32.456500	0.224124	0.000000	-0.976859	21.177200	-6.744500	7.769170
4.025000	-2.697130	283.356000	30.783100	0.192812	0.000000	-1.443750	-17.682400	4.658120	-1.536550	-0.314289	288.753000	-32.941500	0.224282	0.000000	-0.976262	21.162800	-6.746980	7.875070
4.030000	-2.469580	281.636000	30.767100	0.193071	0.000000	-1.443080	-17.762700	4.714890	-1.442700	-0.303636	288.041000	-32.507800	0.224557	0.000000	-0.977171	21.372500	-6.801570	7.933560
4.035000	-2.420210	281.542000	31.123800	0.192177	0.000000	-1.444030	-17.486200	4.657070	-1.697950	-0.566312	289.652000	-32.614000	0.224710	0.000000	-0.977220	21.512900	-6.759790	8.013910
4.040000	-2.223600	280.680000	30.447600	0.193378	0.000000	-1.443900	-17.466200	4.721360	-1.353520	-0.169669	289.970000	-32.395400	0.224803	0.000000	-0.977370	21.569600	-6.785200	8.041410
4.045000	-2.379830	281.264000	30.699700	0.192924	0.000000	-1.442890	-17.788900	4.743090	-1.479980	0.445257	289.640000	-32.090200	0.225012	0.000000	-0.976893	21.390700	-6.804600	8.083530
4.050000	-2.385580	280.684000	30.661600	0.193698	0.000000	-1.443440	-17.599400	4.676340	-1.262710	0.597882	288.778000	-32.353200	0.225146	0.000000	-0.977548	21.512100	-6.769830	8.106370
4.055000	-2.593110	281.396000	30.367300	0.193730	0.000000	-1.443190	-17.716900	4.753990	-1.254290	0.620303	287.901000	-32.121700	0.225218	0.000000	-0.977796	21.517500	-6.823620	8.106810
